# xmcd CD database file
#
# Track frame offsets:
#	150
#	10429
#	21283
#	33006
#	43367
#	52962
#	63195
#	73421
#	83747
#	93528
#	106315
#	117563
#	128033
#	136476
#	146204
#	156844
#	169048
#	182463
#	193045
#	204158
#	212212
#	224218
#	235058
#	244521
#	253971
#	265241
#	276235
#	285832
#	295666
#	307391
#	317946
#	329133
#	338691
#	348175
#
# Disc length: 4763 seconds
#
# Revision: 0
# Processed by: cddbd v1.5.2PL0 Copyright (c) Steve Scherf et al.
# Submitted via: jetAudio 7
#
DISCID=1a129922
DTITLE=Floyd Cramer - On The Rebound Disc 1
DYEAR=1900
DGENRE=Country
TTITLE0=Rag-A-Tag
TTITLE1=Jealous, Cold, Cheatin' Heart
TTITLE2=Tennessee Central No. 9
TTITLE3=Slap Happy
TTITLE4=Herman's Theme
TTITLE5=Flip, Flop And Bop
TTITLE6=Mumble Jumble
TTITLE7=The Big Chihuahua
TTITLE8=I'll Never Be Free
TTITLE9=Trouble In Mind
TTITLE10=Last Date
TTITLE11=Sweetie Baby
TTITLE12=Tennessee Waltz
TTITLE13=On The Rebound
TTITLE14=San Antonio Rose
TTITLE15=I Can Just Imagine
TTITLE16=Wonderland By Night
TTITLE17=First Impression
TTITLE18=Your Last Goodbye
TTITLE19=Hang On
TTITLE20=You Win Again
TTITLE21=Out On A Limb
TTITLE22=Rejoice
TTITLE23=Chattanooga Choo Choo
TTITLE24=Let's Go
TTITLE25=Perdido
TTITLE26=Lovesick Blues
TTITLE27=Hot Pepper
TTITLE28=For Those That Cry
TTITLE29=Cold, Cold Heart
TTITLE30=Your Cheatin' Heart
TTITLE31=Swing Low
TTITLE32=Losers Weepers
TTITLE33=Java
EXTD=
EXTT0=
EXTT1=
EXTT2=
EXTT3=
EXTT4=
EXTT5=
EXTT6=
EXTT7=
EXTT8=
EXTT9=
EXTT10=
EXTT11=
EXTT12=
EXTT13=
EXTT14=
EXTT15=
EXTT16=
EXTT17=
EXTT18=
EXTT19=
EXTT20=
EXTT21=
EXTT22=
EXTT23=
EXTT24=
EXTT25=
EXTT26=
EXTT27=
EXTT28=
EXTT29=
EXTT30=
EXTT31=
EXTT32=
EXTT33=
PLAYORDER=
